<svg width="16" height="16" viewBox="0 0 16 16" fill="none" xmlns="http://www.w3.org/2000/svg">
<path d="M4.66671 4.66683H3.64783C2.56481 4.66683 2.02375 4.66683 1.63855 4.88778C1.30052 5.08167 1.04068 5.38795 0.905 5.75326C0.750478 6.16928 0.839422 6.70294 1.01725 7.76988L1.01762 7.77189L1.7954 12.4386C1.92734 13.2302 1.99374 13.6262 2.19127 13.9232C2.36538 14.185 2.60979 14.392 2.89669 14.5208C3.22215 14.6668 3.62326 14.6668 4.42582 14.6668H11.5745C12.377 14.6668 12.7779 14.6668 13.1033 14.5208C13.3902 14.392 13.6348 14.185 13.809 13.9232C14.0065 13.6262 14.0725 13.2302 14.2045 12.4386L14.9822 7.77189L14.983 7.76864C15.1607 6.70252 15.2496 6.16911 15.0951 5.75326C14.9594 5.38795 14.7002 5.08167 14.3622 4.88778C13.977 4.66683 13.4351 4.66683 12.352 4.66683H11.3334M4.66671 4.66683H11.3334M4.66671 4.66683C4.66671 2.82588 6.15909 1.3335 8.00004 1.3335C9.84099 1.3335 11.3334 2.82588 11.3334 4.66683" stroke-width="1.66667" stroke-linecap="round" stroke-linejoin="round"/>
<path d="M4.66671 4.66683H3.64783C2.56481 4.66683 2.02375 4.66683 1.63855 4.88778C1.30052 5.08167 1.04068 5.38795 0.905 5.75326C0.750478 6.16928 0.839422 6.70294 1.01725 7.76988L1.01762 7.77189L1.7954 12.4386C1.92734 13.2302 1.99374 13.6262 2.19127 13.9232C2.36538 14.185 2.60979 14.392 2.89669 14.5208C3.22215 14.6668 3.62326 14.6668 4.42582 14.6668H11.5745C12.377 14.6668 12.7779 14.6668 13.1033 14.5208C13.3902 14.392 13.6348 14.185 13.809 13.9232C14.0065 13.6262 14.0725 13.2302 14.2045 12.4386L14.9822 7.77189L14.983 7.76864C15.1607 6.70252 15.2496 6.16911 15.0951 5.75326C14.9594 5.38795 14.7002 5.08167 14.3622 4.88778C13.977 4.66683 13.4351 4.66683 12.352 4.66683H11.3334M4.66671 4.66683H11.3334M4.66671 4.66683C4.66671 2.82588 6.15909 1.3335 8.00004 1.3335C9.84099 1.3335 11.3334 2.82588 11.3334 4.66683" stroke-opacity="0.2" stroke-width="1.66667" stroke-linecap="round" stroke-linejoin="round"/>
</svg>
