<svg width="17" height="16" viewBox="0 0 17 16" fill="none" xmlns="http://www.w3.org/2000/svg">
<path d="M5.23991 4.88281e-06H3.23991C2.53267 4.88281e-06 1.85439 0.280956 1.35429 0.781054C0.854194 1.28115 0.573242 1.95943 0.573242 2.66667V4.66667C0.573242 5.37392 0.854194 6.05219 1.35429 6.55229C1.85439 7.05239 2.53267 7.33334 3.23991 7.33334H5.23991C5.94715 7.33334 6.62543 7.05239 7.12553 6.55229C7.62562 6.05219 7.90658 5.37392 7.90658 4.66667V2.66667C7.90658 1.95943 7.62562 1.28115 7.12553 0.781054C6.62543 0.280956 5.94715 4.88281e-06 5.23991 4.88281e-06ZM6.57324 4.66667C6.57324 5.02029 6.43277 5.35943 6.18272 5.60948C5.93267 5.85953 5.59353 6.00001 5.23991 6.00001H3.23991C2.88629 6.00001 2.54715 5.85953 2.2971 5.60948C2.04705 5.35943 1.90658 5.02029 1.90658 4.66667V2.66667C1.90658 2.31305 2.04705 1.97391 2.2971 1.72386C2.54715 1.47381 2.88629 1.33334 3.23991 1.33334H5.23991C5.59353 1.33334 5.93267 1.47381 6.18272 1.72386C6.43277 1.97391 6.57324 2.31305 6.57324 2.66667V4.66667Z" fill="white"/>
<path d="M13.9066 0H11.9066C11.1993 0 10.521 0.280952 10.021 0.781049C9.52085 1.28115 9.2399 1.95942 9.2399 2.66667V4.66667C9.2399 5.37391 9.52085 6.05219 10.021 6.55229C10.521 7.05238 11.1993 7.33333 11.9066 7.33333H13.9066C14.6138 7.33333 15.2921 7.05238 15.7922 6.55229C16.2923 6.05219 16.5732 5.37391 16.5732 4.66667V2.66667C16.5732 1.95942 16.2923 1.28115 15.7922 0.781049C15.2921 0.280952 14.6138 0 13.9066 0ZM15.2399 4.66667C15.2399 5.02029 15.0994 5.35943 14.8494 5.60948C14.5993 5.85952 14.2602 6 13.9066 6H11.9066C11.5529 6 11.2138 5.85952 10.9638 5.60948C10.7137 5.35943 10.5732 5.02029 10.5732 4.66667V2.66667C10.5732 2.31305 10.7137 1.97391 10.9638 1.72386C11.2138 1.47381 11.5529 1.33333 11.9066 1.33333H13.9066C14.2602 1.33333 14.5993 1.47381 14.8494 1.72386C15.0994 1.97391 15.2399 2.31305 15.2399 2.66667V4.66667Z" fill="white"/>
<path d="M5.23992 8.66666H3.23992C2.53267 8.66666 1.8544 8.94761 1.3543 9.44771C0.854204 9.94781 0.573252 10.6261 0.573252 11.3333V13.3333C0.573252 14.0406 0.854204 14.7189 1.3543 15.2189C1.8544 15.719 2.53267 16 3.23992 16H5.23992C5.94716 16 6.62544 15.719 7.12554 15.2189C7.62563 14.7189 7.90659 14.0406 7.90659 13.3333V11.3333C7.90659 10.6261 7.62563 9.94781 7.12554 9.44771C6.62544 8.94761 5.94716 8.66666 5.23992 8.66666ZM6.57325 13.3333C6.57325 13.687 6.43278 14.0261 6.18273 14.2761C5.93268 14.5262 5.59354 14.6667 5.23992 14.6667H3.23992C2.8863 14.6667 2.54716 14.5262 2.29711 14.2761C2.04706 14.0261 1.90659 13.687 1.90659 13.3333V11.3333C1.90659 10.9797 2.04706 10.6406 2.29711 10.3905C2.54716 10.1405 2.8863 10 3.23992 10H5.23992C5.59354 10 5.93268 10.1405 6.18273 10.3905C6.43278 10.6406 6.57325 10.9797 6.57325 11.3333V13.3333Z" fill="white"/>
<path d="M13.9066 8.66666H11.9066C11.1993 8.66666 10.521 8.94761 10.021 9.44771C9.52085 9.94781 9.2399 10.6261 9.2399 11.3333V13.3333C9.2399 14.0406 9.52085 14.7189 10.021 15.2189C10.521 15.719 11.1993 16 11.9066 16H13.9066C14.6138 16 15.2921 15.719 15.7922 15.2189C16.2923 14.7189 16.5732 14.0406 16.5732 13.3333V11.3333C16.5732 10.6261 16.2923 9.94781 15.7922 9.44771C15.2921 8.94761 14.6138 8.66666 13.9066 8.66666ZM15.2399 13.3333C15.2399 13.687 15.0994 14.0261 14.8494 14.2761C14.5993 14.5262 14.2602 14.6667 13.9066 14.6667H11.9066C11.5529 14.6667 11.2138 14.5262 10.9638 14.2761C10.7137 14.0261 10.5732 13.687 10.5732 13.3333V11.3333C10.5732 10.9797 10.7137 10.6406 10.9638 10.3905C11.2138 10.1405 11.5529 10 11.9066 10H13.9066C14.2602 10 14.5993 10.1405 14.8494 10.3905C15.0994 10.6406 15.2399 10.9797 15.2399 11.3333V13.3333Z" fill="white"/>
</svg>
