<svg width="146" height="24" viewBox="0 0 146 24" fill="none" xmlns="http://www.w3.org/2000/svg">
<path d="M21.0449 7.49512V16.5039L12.6309 21.1182L4.21875 16.5039V7.49512L12.6309 2.88086L21.0449 7.49512Z" stroke="#F06543" stroke-width="5.05263"/>
<path d="M30.9863 20.6877V14.0207H34.364L35.3897 14.0561H44.1611L45.3282 14.0207H49.5548V20.6877H45.2752V18.0527H35.2659V20.6877H30.9863ZM33.639 4.78955H47.2912V16.9563H42.7286V6.69945L44.78 8.75081H36.0617L37.9009 7.21229C38.0188 7.68387 38.0836 8.13187 38.0954 8.55629C38.119 8.98071 38.1308 9.38155 38.1308 9.75881C38.1308 11.0792 38.0011 12.1757 37.7417 13.0481C37.4823 13.9205 37.0874 14.5748 36.5569 15.011C36.0381 15.4354 35.3779 15.6477 34.5762 15.6477L32.6663 14.0914C33.0907 13.5609 33.4032 12.8594 33.6036 11.987C33.8158 11.1146 33.9219 10.0536 33.9219 8.80387C33.9219 8.2026 33.8983 7.57187 33.8512 6.91166C33.804 6.25145 33.7333 5.54408 33.639 4.78955Z" fill="#352F2F"/>
<path d="M56.9608 18.371C55.6994 18.371 54.5676 18.147 53.5655 17.699C52.5752 17.2392 51.7912 16.6026 51.2135 15.7891C50.6358 14.9639 50.3469 14.0089 50.3469 12.9243C50.3469 11.8514 50.624 10.9142 51.1781 10.1125C51.744 9.31081 52.5103 8.68597 53.4771 8.23797C54.4438 7.78997 55.5284 7.56597 56.7309 7.56597C57.9924 7.56597 59.0653 7.82534 59.9495 8.34408C60.8337 8.86281 61.5116 9.59966 61.9832 10.5546C62.4547 11.4978 62.6905 12.6178 62.6905 13.9146H54.0253V11.8456H60.0733L58.8707 12.5176C58.8118 12.0578 58.6939 11.6746 58.5171 11.3681C58.3402 11.0616 58.1044 10.8317 57.8097 10.6784C57.5267 10.5133 57.1848 10.4308 56.784 10.4308C56.336 10.4308 55.9528 10.531 55.6345 10.7314C55.328 10.9319 55.0922 11.2089 54.9272 11.5626C54.7739 11.9045 54.6973 12.2936 54.6973 12.7298C54.6973 13.2957 54.8211 13.7731 55.0686 14.1622C55.328 14.5394 55.7171 14.8283 56.2358 15.0287C56.7545 15.2291 57.4088 15.3293 58.1987 15.3293C58.9651 15.3293 59.7078 15.235 60.427 15.0464C61.1579 14.846 61.8299 14.563 62.4429 14.1976V16.7441C61.6884 17.2746 60.8278 17.6813 59.8611 17.9643C58.9061 18.2354 57.9394 18.371 56.9608 18.371Z" fill="#352F2F"/>
<path d="M66.7477 9.4405H71.2395V18.0527H66.7477V9.4405ZM63.1224 7.88429H74.8647V11.2266H63.1224V7.88429Z" fill="#352F2F"/>
<path d="M84.6916 18.0527L84.1788 14.4628L84.6916 12.9773L84.1788 11.5096L84.6916 7.88429H89.3603L88.6529 12.9597L89.3603 18.0527H84.6916ZM85.6289 12.9773C85.511 14.062 85.2163 15.011 84.7447 15.8245C84.2849 16.6262 83.6777 17.251 82.9232 17.699C82.1805 18.147 81.3257 18.371 80.359 18.371C79.3687 18.371 78.4963 18.147 77.7417 17.699C76.999 17.251 76.4154 16.6203 75.991 15.8068C75.5784 14.9933 75.372 14.0502 75.372 12.9773C75.372 11.8927 75.5784 10.9437 75.991 10.1302C76.4154 9.31671 76.999 8.68597 77.7417 8.23797C78.4963 7.78997 79.3687 7.56597 80.359 7.56597C81.3257 7.56597 82.1805 7.78997 82.9232 8.23797C83.6777 8.67418 84.2908 9.29903 84.7624 10.1125C85.2339 10.9142 85.5228 11.8691 85.6289 12.9773ZM79.8992 12.9773C79.8992 13.3664 79.9758 13.7142 80.1291 14.0207C80.2941 14.3154 80.5181 14.5512 80.8011 14.7281C81.0958 14.9049 81.4318 14.9933 81.8091 14.9933C82.1981 14.9933 82.5754 14.9049 82.9409 14.7281C83.3064 14.5512 83.6247 14.3154 83.8958 14.0207C84.1788 13.7142 84.3733 13.3664 84.4794 12.9773C84.3733 12.5883 84.1788 12.2405 83.8958 11.934C83.6247 11.6274 83.3064 11.3858 82.9409 11.2089C82.5754 11.0321 82.1981 10.9437 81.8091 10.9437C81.4318 10.9437 81.0958 11.0321 80.8011 11.2089C80.5181 11.3858 80.2941 11.6274 80.1291 11.934C79.9758 12.2405 79.8992 12.5883 79.8992 12.9773Z" fill="#352F2F"/>
<path d="M92.4826 7.88429H104.19V18.0527H99.6978V9.13987L101.749 11.1912H94.7285L96.6207 9.40513C96.6915 10.0889 96.7445 10.6843 96.7799 11.1912C96.8153 11.6864 96.8329 12.1403 96.8329 12.5529C96.8329 14.5807 96.5028 16.0426 95.8426 16.9386C95.1824 17.8346 94.1096 18.2826 92.6241 18.2826C92.1761 18.2826 91.7576 18.2354 91.3685 18.1411C90.9795 18.0586 90.5904 17.9112 90.2014 17.699V14.5512C90.4136 14.6338 90.6199 14.6927 90.8203 14.7281C91.0325 14.7634 91.2153 14.7811 91.3685 14.7811C91.8873 14.7811 92.2468 14.563 92.4473 14.1268C92.6595 13.6906 92.7656 12.9597 92.7656 11.934C92.7656 11.4034 92.742 10.8022 92.6948 10.1302C92.6477 9.45818 92.5769 8.70955 92.4826 7.88429Z" fill="#352F2F"/>
<path d="M105.879 18.0527V7.88429H110.335V16.9917L109.044 14.958H112.139C112.469 14.958 112.717 14.8813 112.882 14.7281C113.058 14.5748 113.147 14.3508 113.147 14.0561C113.147 13.7613 113.058 13.5373 112.882 13.3841C112.717 13.2308 112.469 13.1542 112.139 13.1542H108.956V10.2009H112.935C113.878 10.2009 114.703 10.366 115.41 10.6961C116.118 11.0144 116.666 11.4683 117.055 12.0578C117.444 12.6472 117.639 13.3369 117.639 14.1268C117.639 14.9167 117.444 15.6064 117.055 16.1959C116.666 16.7853 116.124 17.2451 115.428 17.5752C114.744 17.8936 113.937 18.0527 113.005 18.0527H105.879Z" fill="#352F2F"/>
<path d="M118.71 18.0527V7.88429H123.202V14.6573L121.911 14.1976L127.022 7.88429H131.637L122.636 18.0527H118.71ZM126.898 18.0527L124.175 13.1365L127.641 10.926L131.885 18.0527H126.898Z" fill="#352F2F"/>
<path d="M140.905 18.0527L140.392 14.4628L140.905 12.9773L140.392 11.5096L140.905 7.88429H145.573L144.866 12.9597L145.573 18.0527H140.905ZM141.842 12.9773C141.724 14.062 141.429 15.011 140.958 15.8245C140.498 16.6262 139.891 17.251 139.136 17.699C138.393 18.147 137.539 18.371 136.572 18.371C135.582 18.371 134.709 18.147 133.955 17.699C133.212 17.251 132.628 16.6203 132.204 15.8068C131.791 14.9933 131.585 14.0502 131.585 12.9773C131.585 11.8927 131.791 10.9437 132.204 10.1302C132.628 9.31671 133.212 8.68597 133.955 8.23797C134.709 7.78997 135.582 7.56597 136.572 7.56597C137.539 7.56597 138.393 7.78997 139.136 8.23797C139.891 8.67418 140.504 9.29903 140.975 10.1125C141.447 10.9142 141.736 11.8691 141.842 12.9773ZM136.112 12.9773C136.112 13.3664 136.189 13.7142 136.342 14.0207C136.507 14.3154 136.731 14.5512 137.014 14.7281C137.309 14.9049 137.645 14.9933 138.022 14.9933C138.411 14.9933 138.788 14.9049 139.154 14.7281C139.519 14.5512 139.838 14.3154 140.109 14.0207C140.392 13.7142 140.586 13.3664 140.692 12.9773C140.586 12.5883 140.392 12.2405 140.109 11.934C139.838 11.6274 139.519 11.3858 139.154 11.2089C138.788 11.0321 138.411 10.9437 138.022 10.9437C137.645 10.9437 137.309 11.0321 137.014 11.2089C136.731 11.3858 136.507 11.6274 136.342 11.934C136.189 12.2405 136.112 12.5883 136.112 12.9773Z" fill="#352F2F"/>
</svg>
