<svg width="20" height="16" viewBox="0 0 20 16" fill="none" xmlns="http://www.w3.org/2000/svg">
<path d="M11.4283 11.8741H1.4873H11.4283ZM18.5111 11.8741H16.1902H18.5111ZM5.71397 3.36262H1.4873H5.71397ZM18.5111 3.36262H10.4759H18.5111ZM16.1902 11.9045C16.1902 12.536 15.9393 13.1416 15.4928 13.5881C15.0463 14.0346 14.4407 14.2855 13.8092 14.2855C13.1777 14.2855 12.5721 14.0346 12.1256 13.5881C11.6791 13.1416 11.4283 12.536 11.4283 11.9045C11.4283 11.2731 11.6791 10.6675 12.1256 10.2209C12.5721 9.77443 13.1777 9.52358 13.8092 9.52358C14.4407 9.52358 15.0463 9.77443 15.4928 10.2209C15.9393 10.6675 16.1902 11.2731 16.1902 11.9045ZM10.4759 3.3331C10.4759 3.96457 10.225 4.57017 9.77851 5.01669C9.332 5.4632 8.72639 5.71405 8.09492 5.71405C7.46346 5.71405 6.85785 5.4632 6.41134 5.01669C5.96482 4.57017 5.71397 3.96457 5.71397 3.3331C5.71397 2.70163 5.96482 2.09603 6.41134 1.64951C6.85785 1.203 7.46346 0.952148 8.09492 0.952148C8.72639 0.952148 9.332 1.203 9.77851 1.64951C10.225 2.09603 10.4759 2.70163 10.4759 3.3331Z" fill="#352F2F"/>
<path d="M11.4283 11.8741H1.4873M18.5111 11.8741H16.1902M5.71397 3.36262H1.4873M18.5111 3.36262H10.4759M16.1902 11.9045C16.1902 12.536 15.9393 13.1416 15.4928 13.5881C15.0463 14.0346 14.4407 14.2855 13.8092 14.2855C13.1777 14.2855 12.5721 14.0346 12.1256 13.5881C11.6791 13.1416 11.4283 12.536 11.4283 11.9045C11.4283 11.2731 11.6791 10.6675 12.1256 10.2209C12.5721 9.77443 13.1777 9.52358 13.8092 9.52358C14.4407 9.52358 15.0463 9.77443 15.4928 10.2209C15.9393 10.6675 16.1902 11.2731 16.1902 11.9045ZM10.4759 3.3331C10.4759 3.96457 10.225 4.57017 9.77851 5.01669C9.332 5.4632 8.72639 5.71405 8.09492 5.71405C7.46346 5.71405 6.85785 5.4632 6.41134 5.01669C5.96482 4.57017 5.71397 3.96457 5.71397 3.3331C5.71397 2.70163 5.96482 2.09603 6.41134 1.64951C6.85785 1.203 7.46346 0.952148 8.09492 0.952148C8.72639 0.952148 9.332 1.203 9.77851 1.64951C10.225 2.09603 10.4759 2.70163 10.4759 3.3331Z" stroke="black" stroke-width="2" stroke-linecap="square" stroke-linejoin="round"/>
</svg>
