<svg width="20" height="21" viewBox="0 0 20 21" fill="none" xmlns="http://www.w3.org/2000/svg">
<path d="M6.66671 7.26693H5.64783C4.56481 7.26693 4.02375 7.26693 3.63855 7.48788C3.30052 7.68177 3.04068 7.98805 2.905 8.35335C2.75048 8.76937 2.83942 9.30304 3.01725 10.37L3.01762 10.372L3.7954 15.0387C3.92734 15.8303 3.99374 16.2263 4.19127 16.5233C4.36538 16.7851 4.60979 16.9921 4.89669 17.1208C5.22215 17.2669 5.62326 17.2669 6.42582 17.2669H13.5745C14.377 17.2669 14.7779 17.2669 15.1033 17.1208C15.3902 16.9921 15.6348 16.7851 15.809 16.5233C16.0065 16.2263 16.0725 15.8303 16.2045 15.0387L16.9822 10.372L16.983 10.3687C17.1607 9.30262 17.2496 8.76921 17.0951 8.35335C16.9594 7.98805 16.7002 7.68177 16.3622 7.48788C15.977 7.26693 15.4351 7.26693 14.352 7.26693H13.3334M6.66671 7.26693H13.3334M6.66671 7.26693C6.66671 5.42598 8.15909 3.93359 10 3.93359C11.841 3.93359 13.3334 5.42598 13.3334 7.26693" stroke="white" stroke-width="1.66667" stroke-linecap="round" stroke-linejoin="round"/>
</svg>
