<svg width="20" height="20" viewBox="0 0 20 20" fill="none" xmlns="http://www.w3.org/2000/svg">
<path fill-rule="evenodd" clip-rule="evenodd" d="M9.52876 0.946433C9.45356 0.955144 9.22684 0.98155 9.02497 1.00507C8.22067 1.09882 7.21833 1.41721 6.48188 1.81292C4.34282 2.96218 2.91274 5.00343 2.55852 7.41296C2.48129 7.93835 2.48036 8.93741 2.55657 9.4737C2.75598 10.8766 3.34418 12.2049 4.23465 13.2634C4.37204 13.4267 5.72489 14.7995 7.24098 16.3141L9.99751 19.0679L12.754 16.3141C14.2701 14.7995 15.623 13.4267 15.7604 13.2634C16.6819 12.168 17.2797 10.778 17.4606 9.30979C17.5193 8.83327 17.4886 7.63018 17.4067 7.19311C17.2547 6.38198 17.038 5.74089 16.6733 5.02253C15.5841 2.87714 13.5016 1.38214 11.0984 1.02014C10.7116 0.961902 9.77446 0.917878 9.52876 0.946433ZM10.7662 2.68358C12.6354 2.93581 14.2875 4.09768 15.1503 5.76682C16.1489 7.69878 16.0192 9.88737 14.797 11.7303C14.5416 12.1153 14.3093 12.3612 12.2567 14.4197L9.99751 16.6853L7.73833 14.4197C5.68571 12.3612 5.45344 12.1153 5.19805 11.7303C4.49098 10.6642 4.20024 9.70671 4.19981 8.44311C4.19946 7.42608 4.37032 6.7053 4.82325 5.813C5.1361 5.19671 5.45868 4.7646 5.9829 4.25968C6.89887 3.37741 8.05079 2.82725 9.31391 2.66874C9.57653 2.63577 10.4805 2.64503 10.7662 2.68358ZM9.42313 6.8771C8.03379 7.39335 7.94325 9.3219 9.27868 9.95339C9.78493 10.1928 10.2428 10.1851 10.7635 9.9287C11.9017 9.36815 11.9822 7.75108 10.9073 7.03971C10.5035 6.77253 9.88645 6.70491 9.42313 6.8771Z" fill="#352F2F"/>
</svg>
