<svg width="14" height="14" viewBox="0 0 14 14" fill="none" xmlns="http://www.w3.org/2000/svg">
<path fill-rule="evenodd" clip-rule="evenodd" d="M6.70555 0.00593283C7.54841 0.106862 8.22623 0.30601 8.90536 0.652241C10.0729 1.24752 11.0087 2.18389 11.5995 3.34793C12.0427 4.22136 12.2625 5.14065 12.2625 6.12098C12.2625 7.33139 11.9131 8.49315 11.2436 9.50907L11.0533 9.79781L12.4629 11.2101C13.4122 12.1611 13.8935 12.6626 13.9366 12.7456C13.9906 12.8494 14.0007 12.9096 14.0007 13.1288C14.0008 13.366 13.9937 13.4018 13.9196 13.5355C13.7442 13.8522 13.4428 14.019 13.0838 13.9983C12.7274 13.9776 12.7046 13.96 11.5371 12.8043C10.965 12.2379 10.3346 11.6154 10.1363 11.4208L9.77564 11.0669L9.49897 11.2475C8.93749 11.614 8.23156 11.9262 7.63628 12.0712C7.04749 12.2147 6.84609 12.2369 6.13069 12.2374C5.37779 12.2378 5.03933 12.1945 4.43349 12.02C2.04226 11.3314 0.31707 9.28419 0.0276136 6.79165C-0.0130377 6.44164 -0.00794601 5.74888 0.0380163 5.38083C0.324078 3.08897 1.84012 1.16729 3.9955 0.364564C4.6735 0.112063 5.22488 0.0135155 6.0212 0.00256578C6.3449 -0.00189623 6.65286 -0.000390643 6.70555 0.00593283ZM5.69306 1.78236C5.1076 1.82225 4.39855 2.05742 3.85887 2.39068C2.81903 3.03279 2.08756 4.07307 1.84861 5.24965C1.59531 6.49693 1.90582 7.80556 2.69516 8.81735C3.44546 9.77909 4.57761 10.3811 5.8033 10.4702C7.79806 10.6151 9.63439 9.40132 10.2641 7.52172C10.4389 6.99999 10.4682 6.79868 10.4682 6.12098C10.4682 5.44327 10.4389 5.24196 10.2641 4.72023C9.77841 3.27051 8.52075 2.15531 7.02551 1.84844C6.72882 1.78754 6.25224 1.74333 6.04857 1.75778C5.98082 1.7626 5.82084 1.77366 5.69306 1.78236Z" fill="#858F98"/>
</svg>
