<svg width="20" height="21" viewBox="0 0 20 21" fill="none" xmlns="http://www.w3.org/2000/svg">
<path d="M16.0492 8.93163C16.0699 6.58174 14.0668 4.42853 11.5875 4.12832C11.5358 4.12315 11.484 4.11279 11.4271 4.10244C11.3029 4.08174 11.1786 4.06104 11.0492 4.06104C10.542 4.06104 10.4074 4.41818 10.3712 4.63039C10.3349 4.83743 10.3712 5.01342 10.4695 5.14799C10.6403 5.37573 10.9354 5.41714 11.1735 5.4482C11.2407 5.45855 11.308 5.4689 11.365 5.47925C13.5906 5.97615 14.3411 6.75772 14.7086 8.96787C14.719 9.01963 14.7242 9.08691 14.7242 9.15938C14.7397 9.42335 14.7759 9.97201 15.366 9.97201C15.4126 9.97201 15.4695 9.96683 15.5213 9.96166C16.0699 9.87884 16.0544 9.37677 16.044 9.1335C16.044 9.06621 16.0389 8.99892 16.044 8.95751C16.0492 8.95234 16.0492 8.94199 16.0492 8.93163Z" fill="#745FF2"/>
<path d="M10.9096 3.269C10.9769 3.27418 11.039 3.27935 11.0908 3.28453C14.745 3.84871 16.4272 5.58267 16.8982 9.26797C16.9086 9.33008 16.9086 9.40772 16.9086 9.49054C16.9137 9.78039 16.9241 10.3756 17.5659 10.3912H17.5866C17.7885 10.3912 17.9489 10.3291 18.0628 10.21C18.2647 10.003 18.2491 9.68723 18.2388 9.43878C18.2336 9.37667 18.2336 9.31973 18.2336 9.26797C18.2802 5.49468 15.0142 2.07852 11.246 1.94912C11.2305 1.94912 11.215 1.94912 11.1995 1.94912C11.1943 1.94912 11.1788 1.94912 11.1529 1.94912C11.1166 1.94912 11.0701 1.94395 11.0183 1.94395C10.9614 1.93877 10.8941 1.93359 10.8216 1.93359C10.2212 1.93359 10.1073 2.35802 10.0918 2.61682C10.0659 3.20689 10.6353 3.2483 10.9096 3.269Z" fill="#745FF2"/>
<path d="M16.7171 14.0352C16.6395 13.9783 16.5567 13.9162 16.4842 13.8541C16.0857 13.5332 15.6612 13.2381 15.2471 12.9483C15.1643 12.8913 15.0763 12.8292 14.9935 12.7723C14.4656 12.4048 13.9946 12.2236 13.5442 12.2236C12.9438 12.2236 12.4159 12.5549 11.9811 13.2122C11.7896 13.5021 11.5567 13.647 11.2668 13.647C11.096 13.647 10.9045 13.6004 10.6923 13.5021C8.99455 12.7309 7.7782 11.5508 7.08462 9.98761C6.74818 9.23191 6.85687 8.7402 7.44693 8.34164C7.78337 8.1139 8.40449 7.68947 8.36308 6.87684C8.31132 5.95552 6.28234 3.18637 5.42313 2.87063C5.06081 2.73606 4.67778 2.73606 4.28958 2.86546C3.30615 3.19672 2.59704 3.77643 2.24507 4.54765C1.90346 5.28782 1.91898 6.16256 2.29166 7.06835C3.35791 9.69258 4.86412 11.9752 6.75335 13.8644C8.60635 15.7122 10.8838 17.2236 13.5235 18.3623C13.7616 18.4659 14.0101 18.5228 14.1912 18.559C14.2534 18.5746 14.3051 18.5849 14.3465 18.5953C14.3672 18.6004 14.3879 18.6056 14.4138 18.6056H14.4345C15.6767 18.6056 17.1674 17.4721 17.6229 16.1781C18.0422 15.0445 17.3072 14.4855 16.7171 14.0352Z" fill="#745FF2"/>
<path d="M11.4582 6.26572C11.2459 6.2709 10.8008 6.28125 10.6455 6.73156C10.5731 6.94377 10.5834 7.12493 10.6714 7.27504C10.8008 7.4976 11.0544 7.56489 11.2874 7.60112C12.1207 7.7357 12.5503 8.19636 12.6331 9.0504C12.6745 9.44895 12.9437 9.72845 13.2853 9.72845C13.3112 9.72845 13.337 9.72845 13.3629 9.72328C13.777 9.67152 13.9789 9.37131 13.9582 8.81748C13.9633 8.24295 13.6631 7.59077 13.1507 7.068C12.6383 6.54522 12.0223 6.25019 11.4582 6.26572Z" fill="#745FF2"/>
</svg>
