<svg width="20" height="20" viewBox="0 0 20 20" fill="none" xmlns="http://www.w3.org/2000/svg">
<g clip-path="url(#clip0_2042_3402)">
<path fill-rule="evenodd" clip-rule="evenodd" d="M8.02903 4.32117C7.37735 4.39418 7.12345 4.47949 6.85423 4.71589C6.70677 4.84535 6.58141 5.04574 6.63067 5.07328C6.64669 5.08226 6.78391 5.12671 6.93559 5.17203C7.45606 5.32757 7.61274 5.50918 7.75126 6.11718C7.83782 6.49738 7.90087 7.48105 7.86884 7.95203C7.78134 9.23836 7.622 9.79062 7.32454 9.8389C7.25071 9.85086 7.12899 9.84375 7.05403 9.82304C6.74407 9.73746 6.27411 9.23136 5.86071 8.53796C5.54184 8.00308 4.75294 6.46093 4.45192 5.78406C4.1513 5.10796 4.05813 4.97722 3.78872 4.85304C3.6188 4.77472 3.56071 4.77238 2.05044 4.7825C1.16731 4.78843 0.422312 4.81004 0.336961 4.83226C0.253914 4.85386 0.142 4.9155 0.0882108 4.96929C-0.0705001 5.128 -0.0256173 5.3566 0.3095 6.09656C0.887078 7.37195 1.78259 9.07789 2.40665 10.0916C3.03805 11.1173 3.92001 12.3383 4.62595 13.164C5.34419 14.0042 6.82438 14.9953 7.89028 15.3498C8.65626 15.6046 8.83923 15.6278 10.0778 15.6278H11.1911L11.3668 15.5302C11.6251 15.3867 11.6846 15.2356 11.7213 14.6305C11.7685 13.8527 11.963 13.3452 12.3004 13.1191C12.6754 12.8678 12.9771 13.0657 14.0423 14.261C14.8703 15.1902 15.3747 15.5526 15.9854 15.6569C16.3696 15.7225 19.427 15.6394 19.609 15.5584C20.0762 15.3504 20.1147 14.8953 19.7185 14.2641C19.3843 13.7315 18.9458 13.2324 17.9285 12.2266C16.8814 11.1914 16.7586 11.0316 16.7579 10.7024C16.7572 10.4354 16.9615 10.1016 17.8313 8.94812C19.0172 7.37566 19.383 6.84109 19.69 6.23234C20.1074 5.40445 20.1057 5.01859 19.6837 4.84976C19.5416 4.79289 19.3032 4.7855 17.6635 4.78722C16.555 4.78836 15.7459 4.80492 15.6595 4.82816C15.4636 4.88089 15.3103 5.06703 15.158 5.43695C14.6554 6.65773 14.0731 7.73492 13.3656 8.75281C13.1224 9.10277 12.6268 9.63414 12.4304 9.7555C12.2016 9.89687 11.9776 9.79785 11.8199 9.48566C11.6859 9.22074 11.6679 8.80027 11.7161 7.07351C11.7414 6.16718 11.7515 5.37449 11.7385 5.31191C11.5493 4.4025 11.3657 4.32046 9.47231 4.29914C8.84927 4.29211 8.19977 4.30203 8.02903 4.32117Z" fill="#0277FE"/>
</g>
<defs>
<clipPath id="clip0_2042_3402">
<rect width="20" height="20" fill="white"/>
</clipPath>
</defs>
</svg>
