<svg width="20" height="20" viewBox="0 0 20 20" fill="none" xmlns="http://www.w3.org/2000/svg">
<path d="M14.6532 11.0111C14.6178 10.9934 13.3043 10.3477 13.0743 10.2637C12.977 10.2283 12.8753 10.1974 12.7691 10.1974C12.5922 10.1974 12.4419 10.2858 12.3269 10.4583C12.1942 10.6529 11.8006 11.1173 11.6768 11.2544C11.6591 11.2721 11.637 11.2942 11.6237 11.2942C11.6104 11.2942 11.407 11.2102 11.3495 11.1836C9.9431 10.5733 8.87283 9.10057 8.72689 8.85291C8.70477 8.81753 8.70477 8.79984 8.70477 8.79984C8.7092 8.78215 8.75784 8.7335 8.77996 8.70696C8.85072 8.6362 8.93033 8.54333 9.00551 8.45487C9.04089 8.41065 9.07627 8.37084 9.11165 8.33104C9.22222 8.20279 9.27087 8.10549 9.32394 7.9905L9.35489 7.93301C9.492 7.6588 9.37701 7.43325 9.3372 7.35807C9.30625 7.29615 8.75342 5.96052 8.6915 5.819C8.54998 5.47846 8.36423 5.32367 8.1033 5.32367C8.08119 5.32367 8.1033 5.32367 8.00158 5.32809C7.87775 5.33251 7.20551 5.42097 6.9092 5.60672C6.59519 5.80573 6.06006 6.43817 6.06006 7.54824C6.06006 8.54775 6.69691 9.49419 6.96669 9.85242C6.97554 9.86126 6.98438 9.87895 7.00207 9.90549C8.04581 11.4313 9.35047 12.5635 10.6684 13.0898C11.9377 13.5984 12.5392 13.6559 12.8841 13.6559C13.0301 13.6559 13.1451 13.6426 13.2424 13.6337L13.3087 13.6293C13.7465 13.5895 14.7107 13.0898 14.9318 12.4794C15.1043 11.9974 15.1485 11.4755 15.0335 11.2853C14.9583 11.1571 14.8212 11.0907 14.6532 11.0111Z" fill="#21D465"/>
<path d="M10.4912 0.666687C5.6175 0.666687 1.65043 4.6028 1.65043 9.44113C1.65043 11.0067 2.07058 12.537 2.86222 13.877L1.34527 18.3571C1.31873 18.4411 1.33642 18.534 1.39834 18.5959C1.44257 18.6402 1.50448 18.6667 1.5664 18.6667C1.58851 18.6667 1.61505 18.6623 1.63716 18.6578L6.30743 17.1718C7.58556 17.8529 9.03175 18.2156 10.4912 18.2156C15.3649 18.2156 19.332 14.2795 19.332 9.44113C19.332 4.6028 15.3649 0.666687 10.4912 0.666687ZM10.4912 16.389C9.11578 16.389 7.78457 15.991 6.63912 15.2392C6.59932 15.2126 6.55509 15.1994 6.51087 15.1994C6.48875 15.1994 6.46222 15.2038 6.4401 15.2082L4.10055 15.9512L4.85681 13.7222C4.88335 13.6515 4.87008 13.5718 4.82586 13.5099C3.9546 12.3202 3.49465 10.9094 3.49465 9.43671C3.49465 5.60674 6.6347 2.4888 10.4956 2.4888C14.3566 2.4888 17.4966 5.60674 17.4966 9.43671C17.4922 13.2711 14.3521 16.389 10.4912 16.389Z" fill="#21D465"/>
</svg>
