<?xml version="1.0" encoding="utf-8"?><svg viewBox="0 0 146 24" xmlns="http://www.w3.org/2000/svg" xmlns:xlink="http://www.w3.org/1999/xlink"><style>:root>svg{display:none}:root>svg:target{display:block}</style><svg fill="none" viewBox="0 0 18 16" id="arrow-link" xmlns="http://www.w3.org/2000/svg"><path d="M1.5 7a1 1 0 000 2V7zm15.707 1.707a1 1 0 000-1.414L10.843.929A1 1 0 109.43 2.343L15.086 8l-5.657 5.657a1 1 0 001.414 1.414l6.364-6.364zM1.5 9h15V7h-15v2z" fill="#5100FF"/></svg><svg fill="none" viewBox="0 0 16 16" id="basket" xmlns="http://www.w3.org/2000/svg"><path d="M4.667 4.667h-1.02c-1.082 0-1.623 0-2.008.22-.338.195-.598.501-.734.866-.155.416-.066.95.112 2.017v.002l.778 4.667c.132.791.199 1.187.396 1.484.174.262.419.469.706.598.325.146.726.146 1.529.146h7.149c.802 0 1.203 0 1.528-.146.287-.129.532-.336.706-.598.198-.297.264-.693.396-1.484l.777-4.667.001-.003c.178-1.066.267-1.6.112-2.016a1.667 1.667 0 00-.733-.865c-.385-.221-.927-.221-2.01-.221h-1.019m-6.666 0h6.666m-6.666 0a3.333 3.333 0 116.666 0"/><path d="M4.667 4.667h-1.02c-1.082 0-1.623 0-2.008.22-.338.195-.598.501-.734.866-.155.416-.066.95.112 2.017v.002l.778 4.667c.132.791.199 1.187.396 1.484.174.262.419.469.706.598.325.146.726.146 1.529.146h7.149c.802 0 1.203 0 1.528-.146.287-.129.532-.336.706-.598.198-.297.264-.693.396-1.484l.777-4.667.001-.003c.178-1.066.267-1.6.112-2.016a1.667 1.667 0 00-.733-.865c-.385-.221-.927-.221-2.01-.221h-1.019m-6.666 0h6.666m-6.666 0a3.333 3.333 0 116.666 0"/></svg><svg fill="none" viewBox="0 0 17 16" id="catalog" xmlns="http://www.w3.org/2000/svg"><path d="M5.24 0h-2A2.667 2.667 0 00.573 2.667v2A2.667 2.667 0 003.24 7.333h2a2.667 2.667 0 002.667-2.666v-2A2.667 2.667 0 005.24 0zm1.333 4.667A1.333 1.333 0 015.24 6h-2a1.333 1.333 0 01-1.333-1.333v-2A1.333 1.333 0 013.24 1.333h2a1.333 1.333 0 011.333 1.334v2zM13.907 0h-2A2.666 2.666 0 009.24 2.667v2a2.667 2.667 0 002.667 2.666h2a2.667 2.667 0 002.666-2.666v-2A2.667 2.667 0 0013.907 0zm1.333 4.667A1.334 1.334 0 0113.907 6h-2a1.333 1.333 0 01-1.334-1.333v-2a1.333 1.333 0 011.334-1.334h2a1.333 1.333 0 011.333 1.334v2zM5.24 8.667h-2a2.667 2.667 0 00-2.667 2.666v2A2.666 2.666 0 003.24 16h2a2.667 2.667 0 002.667-2.667v-2A2.667 2.667 0 005.24 8.667zm1.333 4.666a1.333 1.333 0 01-1.333 1.334h-2a1.333 1.333 0 01-1.333-1.334v-2A1.333 1.333 0 013.24 10h2a1.334 1.334 0 011.333 1.333v2zM13.907 8.667h-2a2.666 2.666 0 00-2.667 2.666v2A2.666 2.666 0 0011.907 16h2a2.667 2.667 0 002.666-2.667v-2a2.667 2.667 0 00-2.666-2.666zm1.333 4.666a1.333 1.333 0 01-1.333 1.334h-2a1.333 1.333 0 01-1.334-1.334v-2A1.333 1.333 0 0111.907 10h2a1.334 1.334 0 011.333 1.333v2z" fill="#fff"/></svg><svg fill="none" viewBox="0 0 18 18" id="close-popup" xmlns="http://www.w3.org/2000/svg"><path d="M18 1.8L16.2 0 9 7.2 1.8 0 0 1.8 7.2 9 0 16.2 1.8 18 9 10.8l7.2 7.2 1.8-1.8L10.8 9 18 1.8z" fill="#858F98"/></svg><svg fill="none" viewBox="0 0 146 24" id="detalka" xmlns="http://www.w3.org/2000/svg"><path d="M21.045 7.495v9.009l-8.414 4.614-8.412-4.614V7.495l8.412-4.614 8.414 4.614z" stroke="#F06543" stroke-width="5.053"/><path d="M30.986 20.688V14.02h3.378l1.026.035h8.771l1.167-.035h4.227v6.667h-4.28v-2.635h-10.01v2.635h-4.279zM33.64 4.79h13.652v12.166H42.73V6.7l2.051 2.052h-8.718L37.9 7.212c.118.472.183.92.194 1.344.024.425.036.826.036 1.203 0 1.32-.13 2.417-.39 3.29-.259.872-.654 1.526-1.184 1.962-.519.424-1.18.637-1.98.637l-1.91-1.557c.424-.53.736-1.232.937-2.104.212-.872.318-1.933.318-3.183 0-.601-.024-1.232-.07-1.892a40.408 40.408 0 00-.213-2.122zM56.96 18.371c-1.26 0-2.392-.224-3.395-.672-.99-.46-1.774-1.096-2.351-1.91-.578-.825-.867-1.78-.867-2.865 0-1.073.277-2.01.831-2.811.566-.802 1.332-1.427 2.3-1.875.966-.448 2.05-.672 3.253-.672 1.261 0 2.334.26 3.218.778.885.519 1.563 1.256 2.034 2.21.472.944.708 2.064.708 3.36h-8.666v-2.068h6.048l-1.202.672c-.06-.46-.177-.843-.354-1.15a1.73 1.73 0 00-.707-.69c-.283-.165-.625-.247-1.026-.247-.448 0-.831.1-1.15.3-.306.2-.542.478-.707.832-.153.341-.23.73-.23 1.167 0 .566.124 1.043.372 1.432.259.377.648.666 1.167.867.519.2 1.173.3 1.963.3.766 0 1.509-.094 2.228-.283.73-.2 1.403-.483 2.016-.848v2.546a8.7 8.7 0 01-2.582 1.22c-.955.271-1.922.407-2.9.407zM66.748 9.44h4.492v8.613h-4.492V9.44zm-3.626-1.556h11.743v3.343H63.122V7.884zM84.692 18.053l-.513-3.59.513-1.486-.513-1.467.513-3.626h4.668l-.707 5.076.707 5.093h-4.668zm.937-5.076c-.118 1.085-.413 2.034-.884 2.848a5.059 5.059 0 01-1.822 1.874c-.743.448-1.597.672-2.564.672-.99 0-1.863-.224-2.617-.672-.743-.448-1.327-1.079-1.751-1.892-.413-.814-.619-1.757-.619-2.83 0-1.084.206-2.033.619-2.847.424-.813 1.008-1.444 1.75-1.892.755-.448 1.628-.672 2.618-.672.967 0 1.822.224 2.564.672.755.436 1.368 1.061 1.84 1.875.47.801.76 1.756.866 2.864zm-5.73 0c0 .39.077.737.23 1.044.165.294.39.53.672.707.295.177.63.265 1.008.265a2.57 2.57 0 001.132-.265c.365-.177.684-.413.955-.707.283-.307.477-.655.583-1.044a2.483 2.483 0 00-.583-1.043 3.018 3.018 0 00-.955-.725 2.57 2.57 0 00-1.132-.265c-.377 0-.713.088-1.008.265a1.897 1.897 0 00-.672.725 2.3 2.3 0 00-.23 1.043zM92.483 7.884h11.707v10.169h-4.492V9.14l2.051 2.051h-7.02l1.892-1.786c.07.684.124 1.28.159 1.786.035.495.053.95.053 1.362 0 2.028-.33 3.49-.99 4.386-.66.896-1.733 1.344-3.219 1.344a5.32 5.32 0 01-1.255-.142A4.3 4.3 0 0190.2 17.7v-3.148a3.283 3.283 0 001.168.23c.518 0 .878-.218 1.078-.654.212-.436.319-1.167.319-2.193 0-.53-.024-1.132-.071-1.804a51.938 51.938 0 00-.212-2.246zM105.879 18.053V7.884h4.456v9.108l-1.291-2.034h3.095c.33 0 .578-.077.743-.23.176-.153.265-.377.265-.672 0-.295-.089-.519-.265-.672-.165-.153-.413-.23-.743-.23h-3.183v-2.953h3.979c.943 0 1.768.165 2.475.495.708.318 1.256.772 1.645 1.362.389.59.584 1.279.584 2.069s-.195 1.48-.584 2.069c-.389.59-.931 1.05-1.627 1.38-.684.318-1.491.477-2.423.477h-7.126zM118.71 18.053V7.884h4.492v6.773l-1.291-.46 5.111-6.313h4.615l-9.001 10.169h-3.926zm8.188 0l-2.723-4.917 3.466-2.21 4.244 7.127h-4.987zM140.905 18.053l-.513-3.59.513-1.486-.513-1.467.513-3.626h4.668l-.707 5.076.707 5.093h-4.668zm.937-5.076c-.118 1.085-.413 2.034-.884 2.848a5.058 5.058 0 01-1.822 1.874c-.743.448-1.597.672-2.564.672-.99 0-1.863-.224-2.617-.672-.743-.448-1.327-1.079-1.751-1.892-.413-.814-.619-1.757-.619-2.83 0-1.084.206-2.033.619-2.847.424-.813 1.008-1.444 1.751-1.892.754-.448 1.627-.672 2.617-.672.967 0 1.821.224 2.564.672.755.436 1.368 1.061 1.839 1.875.472.801.761 1.756.867 2.864zm-5.73 0c0 .39.077.737.23 1.044.165.294.389.53.672.707.295.177.631.265 1.008.265.389 0 .766-.088 1.132-.265.365-.177.684-.413.955-.707a2.48 2.48 0 00.583-1.044 2.481 2.481 0 00-.583-1.043 3.023 3.023 0 00-.955-.725 2.573 2.573 0 00-1.132-.265c-.377 0-.713.088-1.008.265a1.897 1.897 0 00-.672.725c-.153.307-.23.654-.23 1.043z" fill="#352F2F"/></svg><svg fill="none" viewBox="0 0 146 24" id="detalka-footer" xmlns="http://www.w3.org/2000/svg"><path d="M21.045 7.495v9.009l-8.414 4.614-8.412-4.614V7.495l8.412-4.614 8.414 4.614z" stroke="#F06543" stroke-width="5.053"/><path d="M30.986 20.688V14.02h3.378l1.026.035h8.771l1.167-.035h4.227v6.667h-4.28v-2.635h-10.01v2.635h-4.279zM33.64 4.79h13.652v12.166H42.73V6.7l2.051 2.052h-8.718L37.9 7.212c.118.472.183.92.194 1.344.024.425.036.826.036 1.203 0 1.32-.13 2.417-.39 3.29-.259.872-.654 1.526-1.184 1.962-.519.424-1.18.637-1.98.637l-1.91-1.557c.424-.53.736-1.232.937-2.104.212-.872.318-1.933.318-3.183 0-.601-.024-1.232-.07-1.892a40.408 40.408 0 00-.213-2.122zM56.96 18.371c-1.26 0-2.392-.224-3.395-.672-.99-.46-1.774-1.096-2.351-1.91-.578-.825-.867-1.78-.867-2.865 0-1.073.277-2.01.831-2.811.566-.802 1.332-1.427 2.3-1.875.966-.448 2.05-.672 3.253-.672 1.261 0 2.334.26 3.218.778.885.519 1.563 1.256 2.034 2.21.472.944.708 2.064.708 3.36h-8.666v-2.068h6.048l-1.202.672c-.06-.46-.177-.843-.354-1.15a1.73 1.73 0 00-.707-.69c-.283-.165-.625-.247-1.026-.247-.448 0-.831.1-1.15.3-.306.2-.542.478-.707.832-.153.341-.23.73-.23 1.167 0 .566.124 1.043.372 1.432.259.377.648.666 1.167.867.519.2 1.173.3 1.963.3.766 0 1.509-.094 2.228-.283.73-.2 1.403-.483 2.016-.848v2.546a8.7 8.7 0 01-2.582 1.22c-.955.271-1.922.407-2.9.407zM66.748 9.44h4.492v8.613h-4.492V9.44zm-3.626-1.556h11.743v3.343H63.122V7.884zM84.692 18.053l-.513-3.59.513-1.486-.513-1.467.513-3.626h4.668l-.707 5.076.707 5.093h-4.668zm.937-5.076c-.118 1.085-.413 2.034-.884 2.848a5.059 5.059 0 01-1.822 1.874c-.743.448-1.597.672-2.564.672-.99 0-1.863-.224-2.617-.672-.743-.448-1.327-1.079-1.751-1.892-.413-.814-.619-1.757-.619-2.83 0-1.084.206-2.033.619-2.847.424-.813 1.008-1.444 1.75-1.892.755-.448 1.628-.672 2.618-.672.967 0 1.822.224 2.564.672.755.436 1.368 1.061 1.84 1.875.47.801.76 1.756.866 2.864zm-5.73 0c0 .39.077.737.23 1.044.165.294.39.53.672.707.295.177.63.265 1.008.265a2.57 2.57 0 001.132-.265c.365-.177.684-.413.955-.707.283-.307.477-.655.583-1.044a2.483 2.483 0 00-.583-1.043 3.018 3.018 0 00-.955-.725 2.57 2.57 0 00-1.132-.265c-.377 0-.713.088-1.008.265a1.897 1.897 0 00-.672.725 2.3 2.3 0 00-.23 1.043zM92.483 7.884h11.707v10.169h-4.492V9.14l2.051 2.051h-7.02l1.892-1.786c.07.684.124 1.28.159 1.786.035.495.053.95.053 1.362 0 2.028-.33 3.49-.99 4.386-.66.896-1.733 1.344-3.219 1.344a5.32 5.32 0 01-1.255-.142A4.3 4.3 0 0190.2 17.7v-3.148a3.283 3.283 0 001.168.23c.518 0 .878-.218 1.078-.654.212-.436.319-1.167.319-2.193 0-.53-.024-1.132-.071-1.804a51.938 51.938 0 00-.212-2.246zM105.879 18.053V7.884h4.456v9.108l-1.291-2.034h3.095c.33 0 .578-.077.743-.23.176-.153.265-.377.265-.672 0-.295-.089-.519-.265-.672-.165-.153-.413-.23-.743-.23h-3.183v-2.953h3.979c.943 0 1.768.165 2.475.495.708.318 1.256.772 1.645 1.362.389.59.584 1.279.584 2.069s-.195 1.48-.584 2.069c-.389.59-.931 1.05-1.627 1.38-.684.318-1.491.477-2.423.477h-7.126zM118.71 18.053V7.884h4.492v6.773l-1.291-.46 5.111-6.313h4.615l-9.001 10.169h-3.926zm8.188 0l-2.723-4.917 3.466-2.21 4.244 7.127h-4.987zM140.905 18.053l-.513-3.59.513-1.486-.513-1.467.513-3.626h4.668l-.707 5.076.707 5.093h-4.668zm.937-5.076c-.118 1.085-.413 2.034-.884 2.848a5.058 5.058 0 01-1.822 1.874c-.743.448-1.597.672-2.564.672-.99 0-1.863-.224-2.617-.672-.743-.448-1.327-1.079-1.751-1.892-.413-.814-.619-1.757-.619-2.83 0-1.084.206-2.033.619-2.847.424-.813 1.008-1.444 1.751-1.892.754-.448 1.627-.672 2.617-.672.967 0 1.821.224 2.564.672.755.436 1.368 1.061 1.839 1.875.472.801.761 1.756.867 2.864zm-5.73 0c0 .39.077.737.23 1.044.165.294.389.53.672.707.295.177.631.265 1.008.265.389 0 .766-.088 1.132-.265.365-.177.684-.413.955-.707a2.48 2.48 0 00.583-1.044 2.481 2.481 0 00-.583-1.043 3.023 3.023 0 00-.955-.725 2.573 2.573 0 00-1.132-.265c-.377 0-.713.088-1.008.265a1.897 1.897 0 00-.672.725c-.153.307-.23.654-.23 1.043z" fill="#fff"/></svg><svg fill="none" viewBox="0 0 20 16" id="filter" xmlns="http://www.w3.org/2000/svg"><path d="M11.428 11.874h-9.94 9.94zm7.083 0h-2.32 2.32zM5.714 3.363H1.487h4.227zm12.797 0h-8.035 8.035zm-2.32 8.542a2.381 2.381 0 11-4.763 0 2.381 2.381 0 014.762 0zm-5.715-8.572a2.381 2.381 0 11-4.762 0 2.381 2.381 0 014.762 0z" fill="#352F2F"/><path d="M11.428 11.874h-9.94m17.023 0h-2.32M5.713 3.363H1.487m17.024 0h-8.035m5.714 8.542a2.381 2.381 0 11-4.762 0 2.381 2.381 0 014.762 0zm-5.714-8.572a2.381 2.381 0 11-4.762 0 2.381 2.381 0 014.762 0z" stroke="#000" stroke-width="2" stroke-linecap="square" stroke-linejoin="round"/></svg><svg fill="none" viewBox="0 0 20 20" id="icon-angle-right" xmlns="http://www.w3.org/2000/svg"><path d="M12.256 6.078a.832.832 0 00-1.178 0L7.744 9.41a.834.834 0 000 1.178l3.334 3.333a.833.833 0 101.178-1.178L9.513 9.999l2.743-2.744a.832.832 0 000-1.177z" fill="#858F98"/></svg><svg fill="none" viewBox="0 0 20 21" id="icon-shop-bag" xmlns="http://www.w3.org/2000/svg"><path d="M6.667 7.267h-1.02c-1.082 0-1.623 0-2.008.22-.338.195-.598.501-.734.866-.155.416-.066.95.112 2.017v.002l.778 4.667c.132.791.199 1.187.396 1.484.174.262.419.47.706.598.325.146.726.146 1.529.146h7.149c.802 0 1.203 0 1.528-.146.287-.129.532-.336.706-.598.197-.297.264-.693.396-1.484l.777-4.667.001-.003c.178-1.066.267-1.6.112-2.016a1.667 1.667 0 00-.733-.865c-.385-.221-.927-.221-2.01-.221h-1.019m-6.666 0h6.666m-6.666 0a3.333 3.333 0 116.666 0" stroke="#fff" stroke-width="1.667" stroke-linecap="round" stroke-linejoin="round"/></svg><svg fill="none" viewBox="0 0 20 20" id="location" xmlns="http://www.w3.org/2000/svg"><path fill-rule="evenodd" clip-rule="evenodd" d="M9.529.946c-.075.01-.302.036-.504.06-.804.093-1.807.411-2.543.807a7.542 7.542 0 00-3.923 5.6c-.078.525-.079 1.524-.002 2.06a7.568 7.568 0 001.678 3.79c.137.164 1.49 1.537 3.006 3.051l2.757 2.754 2.756-2.754c1.516-1.514 2.869-2.887 3.006-3.05a7.614 7.614 0 001.7-3.954c.06-.477.029-1.68-.053-2.117a7.611 7.611 0 00-.734-2.17 7.503 7.503 0 00-5.575-4.003C10.712.962 9.774.918 9.528.946zm1.237 1.738a5.836 5.836 0 014.384 3.083c.999 1.932.87 4.12-.353 5.963-.255.385-.488.631-2.54 2.69l-2.26 2.265-2.259-2.265c-2.052-2.059-2.285-2.305-2.54-2.69-.707-1.066-.998-2.023-.998-3.287 0-1.017.17-1.738.623-2.63a5.35 5.35 0 011.16-1.553 5.81 5.81 0 013.33-1.591c.264-.033 1.167-.024 1.453.015zM9.423 6.877c-1.39.516-1.48 2.445-.144 3.076.506.24.964.232 1.485-.024 1.138-.56 1.218-2.178.143-2.89-.403-.266-1.02-.334-1.484-.162z" fill="#352F2F"/></svg><svg fill="none" viewBox="0 0 16 18" id="profil" xmlns="http://www.w3.org/2000/svg"><path d="M14.667 16.5c0-2.301-2.985-4.167-6.667-4.167S1.333 14.2 1.333 16.5M8 9.833A4.167 4.167 0 118 1.5a4.167 4.167 0 010 8.333z"/></svg><svg fill="none" viewBox="0 0 12 12" id="remove" xmlns="http://www.w3.org/2000/svg"><path d="M11 11L6 6m0 0L1 1m5 5l5-5M6 6l-5 5" stroke="#858F98" stroke-width="1.667" stroke-linecap="round" stroke-linejoin="round"/></svg><svg fill="none" viewBox="0 0 14 14" id="search" xmlns="http://www.w3.org/2000/svg"><path fill-rule="evenodd" clip-rule="evenodd" d="M6.706.006c.842.1 1.52.3 2.2.646A6.13 6.13 0 0111.6 3.348a6.03 6.03 0 01.662 2.773c0 1.21-.349 2.372-1.018 3.388l-.19.289 1.409 1.412c.95.951 1.43 1.453 1.474 1.536.054.103.064.164.064.383 0 .237-.007.273-.081.407a.864.864 0 01-.836.462c-.357-.02-.38-.038-1.547-1.194a666.095 666.095 0 00-1.4-1.383l-.361-.354-.277.18a6.432 6.432 0 01-1.863.824c-.589.144-.79.166-1.505.166-.753 0-1.092-.043-1.698-.217C2.043 11.331.317 9.284.028 6.792a7.688 7.688 0 01.01-1.411A6.142 6.142 0 013.996.365C4.672.112 5.224.014 6.02.003c.324-.005.632-.003.685.003zM5.693 1.782c-.585.04-1.294.275-1.834.609a4.41 4.41 0 00-2.01 2.859 4.393 4.393 0 00.846 3.567 4.343 4.343 0 003.108 1.653 4.361 4.361 0 004.461-2.948c.175-.522.204-.723.204-1.401s-.03-.879-.204-1.4a4.381 4.381 0 00-3.238-2.873c-.297-.06-.774-.105-.977-.09l-.356.024z" fill="#858F98"/></svg><svg fill="none" viewBox="0 0 20 20" id="telegram" xmlns="http://www.w3.org/2000/svg"><path d="M8.061 12.886l-.296 4.188c.427 0 .612-.181.833-.402l1.998-1.91 4.137 3.03c.758.423 1.295.202 1.5-.698l2.716-12.731c.24-1.117-.407-1.56-1.145-1.283L1.836 9.195c-1.09.422-1.074 1.03-.186 1.307l4.082 1.27 9.482-5.937c.447-.296.853-.13.518.162l-7.67 6.889z" fill="#169CDD"/></svg><svg fill="none" viewBox="0 0 20 21" id="viber" xmlns="http://www.w3.org/2000/svg"><path d="M16.05 8.932c.02-2.35-1.983-4.503-4.463-4.804-.051-.005-.103-.015-.16-.026a2.282 2.282 0 00-.378-.041c-.507 0-.642.357-.678.57-.036.206 0 .382.098.517.171.228.466.27.705.3.067.01.134.02.191.031 2.226.497 2.976 1.279 3.344 3.489.01.052.015.119.015.191.016.264.052.813.642.813.047 0 .104-.005.155-.01.549-.083.533-.585.523-.829 0-.067-.005-.134 0-.175.005-.006.005-.016.005-.026z" fill="#745FF2"/><path d="M10.91 3.269c.067.005.129.01.18.016 3.655.564 5.337 2.298 5.808 5.983.01.062.01.14.01.223.006.29.016.885.658.9h.02c.203 0 .363-.062.477-.181.202-.207.186-.523.176-.771-.005-.062-.005-.12-.005-.171.046-3.773-3.22-7.19-6.988-7.319h-.093c-.036 0-.083-.005-.135-.005a2.152 2.152 0 00-.196-.01c-.6 0-.715.424-.73.683-.026.59.543.631.818.652zM16.717 14.035a4.011 4.011 0 01-.233-.18c-.398-.322-.823-.617-1.237-.907l-.254-.176c-.527-.367-.998-.548-1.449-.548-.6 0-1.128.33-1.563.988-.191.29-.424.435-.714.435a1.38 1.38 0 01-.575-.145c-1.697-.771-2.914-1.951-3.607-3.514-.337-.756-.228-1.248.362-1.646.336-.228.957-.653.916-1.465-.052-.921-2.08-3.69-2.94-4.006a1.671 1.671 0 00-1.133-.006c-.984.332-1.693.911-2.045 1.683-.342.74-.326 1.615.047 2.52 1.066 2.625 2.572 4.907 4.461 6.796 1.853 1.848 4.13 3.36 6.77 4.498.239.104.487.16.668.197.062.016.114.026.155.036.021.005.042.01.068.01h.02c1.243 0 2.733-1.133 3.189-2.427.42-1.134-.316-1.693-.906-2.143zM11.458 6.266c-.212.005-.657.015-.813.466-.072.212-.062.393.026.543.13.223.383.29.616.326.834.135 1.263.595 1.346 1.45.042.398.31.677.652.677.026 0 .052 0 .078-.005.414-.051.616-.352.595-.906.005-.574-.295-1.226-.807-1.749-.513-.523-1.129-.818-1.693-.802z" fill="#745FF2"/></svg><svg fill="none" viewBox="0 0 20 20" id="vk" xmlns="http://www.w3.org/2000/svg"><g clip-path="url(#pclip0_2042_3402)"><path fill-rule="evenodd" clip-rule="evenodd" d="M8.029 4.321c-.652.073-.906.158-1.175.395-.147.13-.273.33-.223.357.016.01.153.054.305.099.52.156.677.337.815.945.087.38.15 1.364.118 1.835-.088 1.286-.247 1.839-.544 1.887a.758.758 0 01-.271-.016c-.31-.086-.78-.592-1.193-1.285-.32-.535-1.108-2.077-1.41-2.754-.3-.676-.393-.807-.662-.931-.17-.078-.228-.08-1.739-.07-.883.005-1.628.027-1.713.05a.643.643 0 00-.249.136c-.159.159-.114.388.222 1.128.577 1.275 1.473 2.98 2.097 3.995a26.99 26.99 0 002.219 3.072c.718.84 2.198 1.831 3.264 2.186.766.255.95.278 2.188.278h1.113l.176-.098c.258-.143.318-.294.354-.9.047-.777.242-1.285.58-1.51.374-.252.676-.054 1.741 1.141.828.93 1.333 1.292 1.943 1.396.385.066 3.442-.018 3.624-.099.467-.208.506-.663.11-1.294-.335-.532-.773-1.032-1.79-2.037-1.048-1.036-1.17-1.195-1.171-1.525 0-.267.204-.6 1.073-1.754 1.186-1.572 1.552-2.107 1.859-2.716.417-.828.416-1.213-.006-1.382-.142-.057-.38-.064-2.02-.063-1.109.001-1.918.018-2.005.041-.195.053-.349.239-.501.609a17.161 17.161 0 01-1.792 3.316c-.244.35-.74.881-.936 1.002-.228.142-.452.043-.61-.27-.134-.264-.152-.685-.104-2.411.025-.907.036-1.7.023-1.762-.19-.91-.373-.992-2.267-1.013-.623-.007-1.272.003-1.443.022z" fill="#0277FE"/></g><defs><clipPath id="pclip0_2042_3402"><path fill="#fff" d="M0 0h20v20H0z"/></clipPath></defs></svg><svg fill="none" viewBox="0 0 20 20" id="whatsapp" xmlns="http://www.w3.org/2000/svg"><path d="M14.653 11.011c-.035-.018-1.349-.663-1.579-.747a.898.898 0 00-.305-.067c-.177 0-.327.089-.442.261-.133.195-.526.66-.65.796-.018.018-.04.04-.053.04-.014 0-.217-.084-.274-.11-1.407-.61-2.477-2.083-2.623-2.331-.022-.035-.022-.053-.022-.053.004-.018.053-.067.075-.093.07-.07.15-.164.226-.252.035-.044.07-.084.106-.124.11-.128.159-.226.212-.34l.03-.058a.603.603 0 00-.017-.575c-.03-.062-.584-1.397-.646-1.539-.141-.34-.327-.495-.588-.495l-.101.004c-.124.005-.796.093-1.093.279-.314.199-.849.831-.849 1.941 0 1 .637 1.946.907 2.304.009.01.017.027.035.053 1.044 1.526 2.348 2.659 3.666 3.185 1.27.508 1.871.566 2.216.566.146 0 .261-.013.358-.022l.067-.005c.438-.04 1.402-.54 1.623-1.15.172-.482.216-1.003.101-1.194-.075-.128-.212-.194-.38-.274z" fill="#21D465"/><path d="M10.491.667c-4.873 0-8.84 3.936-8.84 8.774 0 1.566.42 3.096 1.211 4.436l-1.517 4.48a.236.236 0 00.053.239.241.241 0 00.24.062l4.67-1.486a8.927 8.927 0 004.183 1.044c4.874 0 8.841-3.937 8.841-8.775 0-4.838-3.967-8.774-8.84-8.774zm0 15.722a7 7 0 01-3.852-1.15.23.23 0 00-.128-.04.39.39 0 00-.07.01l-2.34.742.756-2.229a.229.229 0 00-.031-.212 6.854 6.854 0 01-1.331-4.073c0-3.83 3.14-6.948 7-6.948 3.862 0 7.002 3.118 7.002 6.948-.005 3.834-3.145 6.952-7.006 6.952z" fill="#21D465"/></svg></svg>