<svg width="12" height="10" viewBox="0 0 12 10" fill="none" xmlns="http://www.w3.org/2000/svg">
<path d="M4.86224 0.528758C5.12259 0.268409 5.54408 0.268409 5.80443 0.528758C6.06478 0.789108 6.06478 1.2106 5.80443 1.47095L2.94193 4.33345H10.6669L10.7349 4.33657C11.071 4.37074 11.3333 4.65469 11.3333 4.99985C11.3333 5.34501 11.071 5.62897 10.7349 5.66313L10.6669 5.66626H2.94193L5.80443 8.52876L5.85052 8.57876C6.06425 8.84061 6.04856 9.22681 5.80443 9.47095C5.56029 9.71508 5.17409 9.73077 4.91224 9.51704L4.86224 9.47095L0.862239 5.47095C0.60189 5.2106 0.60189 4.78911 0.862239 4.52876L4.86224 0.528758Z" fill="#352F2F"/>
</svg>
