<svg width="20" height="20" viewBox="0 0 20 20" fill="none" xmlns="http://www.w3.org/2000/svg">
<path d="M10.4682 6.19132L15.8083 11.5315C15.9319 11.655 16 11.8199 16 11.9957C16 12.1715 15.9319 12.3363 15.8083 12.4599L15.4151 12.8531C15.1589 13.109 14.7425 13.109 14.4867 12.8531L10.0025 8.36887L5.51326 12.8581C5.38965 12.9816 5.22487 13.0498 5.04916 13.0498C4.87326 13.0498 4.70848 12.9816 4.58477 12.8581L4.19171 12.4648C4.0681 12.3412 4 12.1764 4 12.0006C4 11.8248 4.0681 11.66 4.19171 11.5365L9.53664 6.19132C9.66064 6.06752 9.8262 5.99952 10.0022 5.99991C10.1789 5.99952 10.3443 6.06752 10.4682 6.19132Z" fill="#352F2F"/>
</svg>
