<svg width="12" height="10" viewBox="0 0 12 10" fill="none" xmlns="http://www.w3.org/2000/svg">
<path d="M7.13804 9.47095C6.87769 9.7313 6.45542 9.7313 6.19507 9.47095C5.93507 9.21066 5.93507 8.78904 6.19507 8.52876L7.13804 9.47095ZM6.19507 0.528758C6.45542 0.268409 6.87769 0.268409 7.13804 0.528758L11.138 4.52876C11.3982 4.78907 11.3982 5.21063 11.138 5.47095L7.13804 9.47095L6.19507 8.52876L9.05757 5.66626H1.33335C0.965163 5.66626 0.666946 5.36804 0.666946 4.99985C0.666946 4.63166 0.965163 4.33345 1.33335 4.33345H9.05757L6.19507 1.47095C5.93507 1.21066 5.93507 0.789042 6.19507 0.528758Z" fill="white"/>
</svg>
