<svg width="72" height="71" viewBox="0 0 72 71" fill="none" xmlns="http://www.w3.org/2000/svg">
<g clip-path="url(#clip0_658_190)">
<path d="M71.462 30.4521C71.4573 30.2984 71.4219 30.1472 71.3577 30.0075C71.2936 29.8678 71.202 29.7424 71.0885 29.6387L59.6476 19.8594V11.6055C59.6468 11.3206 59.5331 11.0477 59.3314 10.8466C59.1296 10.6455 58.8564 10.5326 58.5716 10.5326H48.7384L36.7152 0.25634C36.5197 0.0908295 36.2719 0 36.0158 0C35.7597 0 35.5118 0.0908295 35.3164 0.25634L23.29 10.5326H13.46C13.1754 10.5334 12.9027 10.6466 12.7011 10.8475C12.4996 11.0485 12.3856 11.3209 12.3839 11.6055V19.8594L0.946201 29.6387C0.820422 29.7517 0.72287 29.8926 0.661366 30.0501C0.398684 30.5565 0.661366 69.2941 0.57275 69.8195C0.576786 69.971 0.612035 70.12 0.676294 70.2572C0.740552 70.3945 0.832437 70.517 0.946201 70.617C2.03491 71.3988 69.5631 70.7246 70.772 70.8133C70.9695 70.7357 71.14 70.6021 71.2626 70.4289C71.3852 70.2558 71.4545 70.0505 71.462 69.8385V30.4521ZM69.3162 67.4807L49.0138 50.1279L69.3162 32.7782V67.4807ZM68.7339 30.4521L59.6476 38.2186V22.6824L68.7339 30.4521ZM36.0158 2.48439L45.4343 10.5326H26.6004L36.0158 2.48439ZM57.505 12.6847V40.0574L47.3776 48.7385L36.7152 39.6238C36.5203 39.4571 36.2723 39.3655 36.0158 39.3655C35.7593 39.3655 35.5113 39.4571 35.3164 39.6238L24.673 48.7385L14.5455 40.0732V12.6847H57.505ZM23.0083 50.1342L2.71851 67.487V32.7846L23.0083 50.1342ZM12.3839 38.2186L3.29768 30.4521L12.3839 22.6824V38.2186ZM4.55412 68.7435L36.0158 41.8423L67.4774 68.7435H4.55412ZM20.9796 25.9517H51.0456C51.3205 25.9666 51.5792 26.0863 51.7685 26.2862C51.9578 26.486 52.0633 26.7508 52.0633 27.0261C52.0633 27.3014 51.9578 27.5662 51.7685 27.7661C51.5792 27.966 51.3205 28.0857 51.0456 28.1006H20.9796C20.7048 28.0857 20.446 27.966 20.2567 27.7661C20.0674 27.5662 19.9619 27.3014 19.9619 27.0261C19.9619 26.7508 20.0674 26.486 20.2567 26.2862C20.446 26.0863 20.7048 25.9666 20.9796 25.9517ZM26.3504 18.989H45.6844C45.9698 18.989 46.2435 19.1024 46.4452 19.3042C46.647 19.506 46.7604 19.7797 46.7604 20.0651C46.7604 20.3505 46.647 20.6241 46.4452 20.8259C46.2435 21.0277 45.9698 21.1411 45.6844 21.1411H26.3504C26.065 21.1411 25.7913 21.0277 25.5895 20.8259C25.3877 20.6241 25.2743 20.3505 25.2743 20.0651C25.2743 19.7797 25.3877 19.506 25.5895 19.3042C25.7913 19.1024 26.065 18.989 26.3504 18.989ZM20.9701 32.9555H51.0361C51.3207 32.9555 51.5935 33.0685 51.7948 33.2697C51.996 33.4709 52.109 33.7438 52.109 34.0283C52.109 34.3129 51.996 34.5858 51.7948 34.787C51.5935 34.9882 51.3207 35.1012 51.0361 35.1012H20.9701C20.8282 35.1006 20.6878 35.072 20.5569 35.0171C20.426 34.9622 20.3072 34.8821 20.2073 34.7813C20.1074 34.6805 20.0283 34.561 19.9745 34.4296C19.9208 34.2983 19.8935 34.1576 19.8941 34.0157C19.8947 33.8737 19.9233 33.7333 19.9782 33.6024C20.0331 33.4715 20.1132 33.3528 20.214 33.2528C20.3148 33.1529 20.4343 33.0738 20.5657 33.0201C20.697 32.9664 20.8377 32.939 20.9796 32.9396L20.9701 32.9555Z" fill="#5100FF"/>
</g>
<defs>
<clipPath id="clip0_658_190">
<rect width="71" height="71" fill="white" transform="translate(0.5)"/>
</clipPath>
</defs>
</svg>
