<svg width="48" height="49" viewBox="0 0 48 49" fill="none" xmlns="http://www.w3.org/2000/svg">
<circle cx="24" cy="24.2002" r="24" fill="#F7F5F5"/>
<path d="M30.08 24.6204L23.9 30.8104C23.0899 31.5304 22.0352 31.9137 20.9518 31.8818C19.8683 31.8499 18.838 31.4053 18.0716 30.6388C17.3052 29.8724 16.8605 28.8421 16.8287 27.7587C16.7968 26.6753 17.18 25.6206 17.9 24.8104L25.9 16.8104C26.3777 16.3567 27.0113 16.1037 27.67 16.1037C28.3288 16.1037 28.9624 16.3567 29.44 16.8104C29.9054 17.282 30.1663 17.9179 30.1663 18.5804C30.1663 19.2429 29.9054 19.8788 29.44 20.3504L22.54 27.2404C22.4718 27.3139 22.3896 27.3733 22.2984 27.4151C22.2072 27.4569 22.1086 27.4804 22.0083 27.4841C21.908 27.4878 21.808 27.4717 21.7139 27.4368C21.6198 27.4018 21.5336 27.3487 21.46 27.2804C21.3865 27.2121 21.3271 27.13 21.2853 27.0388C21.2435 26.9476 21.2201 26.849 21.2164 26.7487C21.2126 26.6484 21.2287 26.5484 21.2637 26.4543C21.2986 26.3602 21.3518 26.2739 21.42 26.2004L26.55 21.0804C26.7383 20.8921 26.8441 20.6367 26.8441 20.3704C26.8441 20.1041 26.7383 19.8487 26.55 19.6604C26.3617 19.4721 26.1063 19.3663 25.84 19.3663C25.5737 19.3663 25.3183 19.4721 25.13 19.6604L20 24.8004C19.7433 25.0551 19.5396 25.3581 19.4006 25.6919C19.2615 26.0257 19.19 26.3838 19.19 26.7454C19.19 27.107 19.2615 27.4651 19.4006 27.7989C19.5396 28.1327 19.7433 28.4357 20 28.6904C20.5244 29.1899 21.2208 29.4685 21.945 29.4685C22.6692 29.4685 23.3657 29.1899 23.89 28.6904L30.78 21.7904C31.5749 20.9374 32.0077 19.8091 31.9871 18.6433C31.9665 17.4775 31.4942 16.3652 30.6698 15.5407C29.8453 14.7162 28.733 14.2439 27.5672 14.2234C26.4014 14.2028 25.2731 14.6355 24.42 15.4304L16.42 23.4304C15.3412 24.6252 14.7651 26.1903 14.8116 27.7994C14.8581 29.4085 15.5237 30.9376 16.6697 32.0682C17.8157 33.1987 19.3537 33.8435 20.9633 33.8681C22.5729 33.8927 24.13 33.2953 25.31 32.2004L31.5 26.0204C31.5933 25.9272 31.6672 25.8165 31.7177 25.6947C31.7682 25.5728 31.7941 25.4423 31.7941 25.3104C31.7941 25.1785 31.7682 25.048 31.7177 24.9262C31.6672 24.8043 31.5933 24.6936 31.5 24.6004C31.4068 24.5072 31.2961 24.4332 31.1743 24.3827C31.0525 24.3323 30.9219 24.3063 30.79 24.3063C30.6582 24.3063 30.5276 24.3323 30.4058 24.3827C30.284 24.4332 30.1733 24.5072 30.08 24.6004V24.6204Z" fill="#E9BB0D"/>
</svg>
