<svg width="20" height="20" viewBox="0 0 20 20" fill="none" xmlns="http://www.w3.org/2000/svg">
<path fill-rule="evenodd" clip-rule="evenodd" d="M9.12016 4.25994C6.31539 4.54943 3.28582 6.18475 0.75457 8.77557C0.0983203 9.44725 0.0390625 9.54834 0.0390625 9.99654C0.0390625 10.4447 0.0983203 10.5458 0.75457 11.2175C2.56469 13.0703 4.64785 14.4517 6.74024 15.1871C8.97035 15.9708 11.0668 15.9708 13.297 15.1871C15.3917 14.4509 17.4705 13.0723 19.2826 11.2175C19.9389 10.5458 19.9981 10.4447 19.9981 9.99654C19.9981 9.54834 19.9389 9.44725 19.2826 8.77557C16.9848 6.42369 14.2331 4.83045 11.6788 4.37287C10.8176 4.21861 9.90902 4.17854 9.12016 4.25994ZM6.34266 7.20369C6.05379 7.78787 5.94656 8.24752 5.94156 8.92232C5.93539 9.75627 6.08813 10.3437 6.49227 11.0408C7.0709 12.0388 8.05598 12.7483 9.19891 12.9903C9.64387 13.0846 10.3933 13.0846 10.8383 12.9903C11.9812 12.7483 12.9663 12.0388 13.5449 11.0408C13.9491 10.3437 14.1018 9.75627 14.0956 8.92232C14.0907 8.25373 13.9832 7.78979 13.7019 7.22311C13.6005 7.019 13.511 6.83857 13.5029 6.82213C13.476 6.76732 14.0946 7.06658 14.5889 7.34748C15.6775 7.96611 16.5604 8.63049 17.5735 9.59326L17.9995 9.99811L17.9055 10.0998C17.7004 10.3217 16.7259 11.1696 16.2732 11.52C14.183 13.138 12.0407 13.9809 10.0186 13.9809C7.99649 13.9809 5.85422 13.138 3.76398 11.52C3.31129 11.1696 2.33676 10.3217 2.13168 10.0998L2.0377 9.99811L2.46371 9.59326C3.45203 8.654 4.33137 7.98846 5.38969 7.37854C5.76043 7.1649 6.50945 6.78928 6.5291 6.80713C6.53274 6.81045 6.44883 6.98889 6.34266 7.20369ZM12.2679 7.18002C12.607 7.33408 12.8692 7.72854 12.901 8.13264C12.944 8.67912 12.6045 9.01037 12.128 8.88678C11.7096 8.77826 11.3844 8.34787 11.3534 7.86174C11.3159 7.27346 11.7542 6.94674 12.2679 7.18002Z" fill="#858F98"/>
</svg>
